<mxfile host="65bd71144e">
    <diagram id="59cByt772JX8G_VPWBIr" name="Page-1">
        <mxGraphModel dx="1887" dy="478" grid="1" gridSize="10" guides="1" tooltips="1" connect="1" arrows="1" fold="1" page="1" pageScale="1" pageWidth="827" pageHeight="1169" math="0" shadow="0">
            <root>
                <mxCell id="0"/>
                <mxCell id="1" parent="0"/>
                <mxCell id="2" value="&lt;div&gt;Экранные формы (выбор товарных категорий, формы отчётов), компоненты интерфейса (поля, кнопки, чек-боксы)&lt;/div&gt;&lt;div&gt;&lt;br&gt;&lt;/div&gt;" style="text;html=1;align=left;verticalAlign=middle;resizable=0;points=[];autosize=1;strokeColor=none;fillColor=none;" parent="1" vertex="1">
                    <mxGeometry x="-740" y="10" width="660" height="30" as="geometry"/>
                </mxCell>
                <mxCell id="3" value="" style="rounded=0;whiteSpace=wrap;html=1;" parent="1" vertex="1">
                    <mxGeometry x="-780" y="40" width="741.85" height="490" as="geometry"/>
                </mxCell>
                <mxCell id="4" value="" style="group" parent="1" vertex="1" connectable="0">
                    <mxGeometry x="-760" y="40" width="707" height="104.29000000000002" as="geometry"/>
                </mxCell>
                <mxCell id="5" value="Header" style="text;html=1;align=center;verticalAlign=middle;resizable=0;points=[];autosize=1;strokeColor=none;fillColor=none;" parent="4" vertex="1">
                    <mxGeometry x="7" width="50" height="20" as="geometry"/>
                </mxCell>
                <mxCell id="6" value="" style="rounded=0;whiteSpace=wrap;html=1;" parent="4" vertex="1">
                    <mxGeometry y="20" width="707" height="84.29" as="geometry"/>
                </mxCell>
                <mxCell id="8" value="Зарегистрировать новый аккаунт" style="rounded=1;whiteSpace=wrap;html=1;" parent="4" vertex="1">
                    <mxGeometry x="420.0009512937595" y="35.32800878787879" width="117.83333333333333" height="53.63909090909092" as="geometry"/>
                </mxCell>
                <mxCell id="188" value="Выход" style="rounded=1;whiteSpace=wrap;html=1;" vertex="1" parent="4">
                    <mxGeometry x="560" y="35.33" width="117.83333333333331" height="53.63909090909092" as="geometry"/>
                </mxCell>
                <mxCell id="12" value="" style="rounded=0;whiteSpace=wrap;html=1;" parent="1" vertex="1">
                    <mxGeometry x="-780.92" y="605" width="741.85" height="470" as="geometry"/>
                </mxCell>
                <mxCell id="13" value="" style="group" parent="1" vertex="1" connectable="0">
                    <mxGeometry x="-760.92" y="605" width="707" height="104.29000000000002" as="geometry"/>
                </mxCell>
                <mxCell id="14" value="Header" style="text;html=1;align=center;verticalAlign=middle;resizable=0;points=[];autosize=1;strokeColor=none;fillColor=none;" parent="13" vertex="1">
                    <mxGeometry x="7" width="50" height="20" as="geometry"/>
                </mxCell>
                <mxCell id="15" value="" style="rounded=0;whiteSpace=wrap;html=1;" parent="13" vertex="1">
                    <mxGeometry y="20" width="707" height="84.29" as="geometry"/>
                </mxCell>
                <mxCell id="19" value="Добавить пылесос" style="rounded=1;whiteSpace=wrap;html=1;" parent="13" vertex="1">
                    <mxGeometry x="430.91992085235916" y="35.318008787878846" width="117.83333333333331" height="53.63909090909092" as="geometry"/>
                </mxCell>
                <mxCell id="174" value="Назад" style="html=1;shadow=0;dashed=0;align=center;verticalAlign=middle;shape=mxgraph.arrows2.arrow;dy=0.6;dx=40;flipH=1;notch=0;" vertex="1" parent="13">
                    <mxGeometry x="20.91999999999996" y="27.139999999999986" width="100" height="70" as="geometry"/>
                </mxCell>
                <mxCell id="185" value="Выход" style="rounded=1;whiteSpace=wrap;html=1;" vertex="1" parent="13">
                    <mxGeometry x="570.9199208523592" y="35.31800878787885" width="117.83333333333331" height="53.63909090909092" as="geometry"/>
                </mxCell>
                <mxCell id="21" value="" style="group" parent="1" vertex="1" connectable="0">
                    <mxGeometry x="-765.47" y="720" width="733.3032541856926" height="390" as="geometry"/>
                </mxCell>
                <mxCell id="22" value="" style="rounded=1;whiteSpace=wrap;html=1;" parent="21" vertex="1">
                    <mxGeometry x="-4.529999999999973" width="720" height="340.71" as="geometry"/>
                </mxCell>
                <mxCell id="178" value="Пылесос №1" style="aspect=fixed;html=1;points=[];align=center;image;fontSize=12;image=img/lib/azure2/ai_machine_learning/Bot_Services.svg;" vertex="1" parent="21">
                    <mxGeometry x="85.47" y="70" width="120" height="120" as="geometry"/>
                </mxCell>
                <mxCell id="180" value="Пылесос №2" style="aspect=fixed;html=1;points=[];align=center;image;fontSize=12;image=img/lib/azure2/ai_machine_learning/Bot_Services.svg;" vertex="1" parent="21">
                    <mxGeometry x="295.47" y="70" width="120" height="120" as="geometry"/>
                </mxCell>
                <mxCell id="181" value="Пылесос №3" style="aspect=fixed;html=1;points=[];align=center;image;fontSize=12;image=img/lib/azure2/ai_machine_learning/Bot_Services.svg;" vertex="1" parent="21">
                    <mxGeometry x="505.47" y="70" width="120" height="120" as="geometry"/>
                </mxCell>
                <mxCell id="182" value="" style="sketch=0;pointerEvents=1;shadow=0;dashed=0;html=1;strokeColor=none;fillColor=#505050;labelPosition=center;verticalLabelPosition=bottom;verticalAlign=top;outlineConnect=0;align=center;shape=mxgraph.office.users.administrator;fontSize=14;" vertex="1" parent="21">
                    <mxGeometry x="589.47" y="260" width="56.5" height="50" as="geometry"/>
                </mxCell>
                <mxCell id="183" value="&lt;font style=&quot;font-size: 12px&quot;&gt;Обратиться к техподдержке&lt;/font&gt;" style="text;html=1;strokeColor=none;fillColor=none;align=center;verticalAlign=middle;whiteSpace=wrap;rounded=0;fontSize=14;" vertex="1" parent="21">
                    <mxGeometry x="457.47" y="270" width="132" height="40" as="geometry"/>
                </mxCell>
                <mxCell id="38" value="&amp;nbsp; &amp;nbsp; &amp;nbsp; &amp;nbsp; &amp;nbsp; Поле для отображения результатов" style="rounded=1;whiteSpace=wrap;html=1;align=left;verticalAlign=top;" parent="1" vertex="1">
                    <mxGeometry x="-770" y="160" width="720" height="360" as="geometry"/>
                </mxCell>
                <mxCell id="39" value="" style="rounded=0;whiteSpace=wrap;html=1;" parent="1" vertex="1">
                    <mxGeometry x="-780" y="1210" width="741.85" height="490" as="geometry"/>
                </mxCell>
                <mxCell id="40" value="" style="group" parent="1" vertex="1" connectable="0">
                    <mxGeometry x="-760" y="1210" width="707" height="104.29000000000002" as="geometry"/>
                </mxCell>
                <mxCell id="41" value="Header" style="text;html=1;align=center;verticalAlign=middle;resizable=0;points=[];autosize=1;strokeColor=none;fillColor=none;" parent="40" vertex="1">
                    <mxGeometry x="7" width="50" height="20" as="geometry"/>
                </mxCell>
                <mxCell id="42" value="" style="rounded=0;whiteSpace=wrap;html=1;" parent="40" vertex="1">
                    <mxGeometry y="20" width="707" height="84.29" as="geometry"/>
                </mxCell>
                <mxCell id="189" value="Выход" style="rounded=1;whiteSpace=wrap;html=1;" vertex="1" parent="40">
                    <mxGeometry x="562.9999208523592" y="35.32800878787873" width="117.83333333333331" height="53.63909090909092" as="geometry"/>
                </mxCell>
                <mxCell id="190" value="Назад" style="html=1;shadow=0;dashed=0;align=center;verticalAlign=middle;shape=mxgraph.arrows2.arrow;dy=0.6;dx=40;flipH=1;notch=0;" vertex="1" parent="40">
                    <mxGeometry x="13" y="27.149999999999977" width="100" height="70" as="geometry"/>
                </mxCell>
                <mxCell id="47" value="Обновить прошивку" style="rounded=1;whiteSpace=wrap;html=1;" parent="40" vertex="1">
                    <mxGeometry x="419.99549923896495" y="35.328008787878844" width="117.83333333333331" height="53.63909090909092" as="geometry"/>
                </mxCell>
                <mxCell id="210" value="Настройки пылесоса" style="rounded=1;whiteSpace=wrap;html=1;" vertex="1" parent="40">
                    <mxGeometry x="270.0032298325723" y="35.328008787878616" width="117.83333333333331" height="53.63909090909092" as="geometry"/>
                </mxCell>
                <mxCell id="48" value="&amp;nbsp; &amp;nbsp; &amp;nbsp; &amp;nbsp; &amp;nbsp; Поле для отображения результатов" style="rounded=1;whiteSpace=wrap;html=1;align=left;verticalAlign=top;" parent="1" vertex="1">
                    <mxGeometry x="-770" y="1330" width="720" height="360" as="geometry"/>
                </mxCell>
                <mxCell id="49" value="" style="rounded=0;whiteSpace=wrap;html=1;" parent="1" vertex="1">
                    <mxGeometry x="-784" y="1770" width="741.85" height="490" as="geometry"/>
                </mxCell>
                <mxCell id="50" value="" style="group" parent="1" vertex="1" connectable="0">
                    <mxGeometry x="-764" y="1770" width="707" height="104.29000000000002" as="geometry"/>
                </mxCell>
                <mxCell id="51" value="Header" style="text;html=1;align=center;verticalAlign=middle;resizable=0;points=[];autosize=1;strokeColor=none;fillColor=none;" parent="50" vertex="1">
                    <mxGeometry x="7" width="50" height="20" as="geometry"/>
                </mxCell>
                <mxCell id="52" value="" style="rounded=0;whiteSpace=wrap;html=1;" parent="50" vertex="1">
                    <mxGeometry y="20" width="707" height="84.29" as="geometry"/>
                </mxCell>
                <mxCell id="195" value="Назад" style="html=1;shadow=0;dashed=0;align=center;verticalAlign=middle;shape=mxgraph.arrows2.arrow;dy=0.6;dx=40;flipH=1;notch=0;" vertex="1" parent="50">
                    <mxGeometry x="17" y="27.139999999999873" width="100" height="70" as="geometry"/>
                </mxCell>
                <mxCell id="196" value="Выход" style="rounded=1;whiteSpace=wrap;html=1;" vertex="1" parent="50">
                    <mxGeometry x="566.9999208523592" y="35.318008787878625" width="117.83333333333331" height="53.63909090909092" as="geometry"/>
                </mxCell>
                <mxCell id="58" value="&amp;nbsp; &amp;nbsp; &amp;nbsp; &amp;nbsp; &amp;nbsp; Поле для отображения результатов" style="rounded=1;whiteSpace=wrap;html=1;align=left;verticalAlign=top;" parent="1" vertex="1">
                    <mxGeometry x="-774" y="1890" width="720" height="360" as="geometry"/>
                </mxCell>
                <mxCell id="59" value="" style="rounded=0;whiteSpace=wrap;html=1;" parent="1" vertex="1">
                    <mxGeometry x="-791.85" y="2390" width="741.85" height="490" as="geometry"/>
                </mxCell>
                <mxCell id="60" value="" style="group" parent="1" vertex="1" connectable="0">
                    <mxGeometry x="-771.85" y="2390" width="799.6832541856925" height="104.29000000000002" as="geometry"/>
                </mxCell>
                <mxCell id="61" value="Header" style="text;html=1;align=center;verticalAlign=middle;resizable=0;points=[];autosize=1;strokeColor=none;fillColor=none;" parent="60" vertex="1">
                    <mxGeometry x="7" width="50" height="20" as="geometry"/>
                </mxCell>
                <mxCell id="62" value="" style="rounded=0;whiteSpace=wrap;html=1;" parent="60" vertex="1">
                    <mxGeometry y="20" width="707" height="84.29" as="geometry"/>
                </mxCell>
                <mxCell id="197" value="Назад" style="html=1;shadow=0;dashed=0;align=center;verticalAlign=middle;shape=mxgraph.arrows2.arrow;dy=0.6;dx=40;flipH=1;notch=0;" vertex="1" parent="60">
                    <mxGeometry x="11.850000000000023" y="27.14999999999987" width="100" height="70" as="geometry"/>
                </mxCell>
                <mxCell id="198" value="Выход" style="rounded=1;whiteSpace=wrap;html=1;" vertex="1" parent="60">
                    <mxGeometry x="561.8499208523592" y="35.32800878787862" width="117.83333333333331" height="53.63909090909092" as="geometry"/>
                </mxCell>
                <mxCell id="68" value="&amp;nbsp; &amp;nbsp; &amp;nbsp; &amp;nbsp; &amp;nbsp; Поле для отображения результатов" style="rounded=1;whiteSpace=wrap;html=1;align=left;verticalAlign=top;" parent="1" vertex="1">
                    <mxGeometry x="-781.85" y="2510" width="720" height="360" as="geometry"/>
                </mxCell>
                <mxCell id="69" value="" style="rounded=0;whiteSpace=wrap;html=1;" parent="1" vertex="1">
                    <mxGeometry x="-795.85" y="2950" width="741.85" height="490" as="geometry"/>
                </mxCell>
                <mxCell id="70" value="" style="group" parent="1" vertex="1" connectable="0">
                    <mxGeometry x="-775.85" y="2950" width="707" height="104.29000000000002" as="geometry"/>
                </mxCell>
                <mxCell id="71" value="Header" style="text;html=1;align=center;verticalAlign=middle;resizable=0;points=[];autosize=1;strokeColor=none;fillColor=none;" parent="70" vertex="1">
                    <mxGeometry x="7" width="50" height="20" as="geometry"/>
                </mxCell>
                <mxCell id="72" value="" style="rounded=0;whiteSpace=wrap;html=1;" parent="70" vertex="1">
                    <mxGeometry y="20" width="707" height="84.29" as="geometry"/>
                </mxCell>
                <mxCell id="74" value="Статистика уборок" style="rounded=1;whiteSpace=wrap;html=1;" parent="70" vertex="1">
                    <mxGeometry x="147.0006453576865" y="35.32800878787879" width="117.83333333333331" height="53.63909090909092" as="geometry"/>
                </mxCell>
                <mxCell id="75" value="&lt;font size=&quot;1&quot;&gt;&lt;span style=&quot;font-size: 12px&quot;&gt;Заполнение контейнера&lt;/span&gt;&lt;/font&gt;" style="rounded=1;whiteSpace=wrap;html=1;" parent="70" vertex="1">
                    <mxGeometry x="287.0032298325723" y="35.32800878787879" width="117.83333333333331" height="53.63909090909092" as="geometry"/>
                </mxCell>
                <mxCell id="76" value="Заряд аккумулятора" style="rounded=1;whiteSpace=wrap;html=1;" parent="70" vertex="1">
                    <mxGeometry x="434" y="35.32999999999993" width="117.83333333333331" height="53.63909090909092" as="geometry"/>
                </mxCell>
                <mxCell id="205" value="Выход" style="rounded=1;whiteSpace=wrap;html=1;" vertex="1" parent="70">
                    <mxGeometry x="569.5799208523592" y="35.328008787878844" width="117.83333333333331" height="53.63909090909092" as="geometry"/>
                </mxCell>
                <mxCell id="206" value="Назад" style="html=1;shadow=0;dashed=0;align=center;verticalAlign=middle;shape=mxgraph.arrows2.arrow;dy=0.6;dx=40;flipH=1;notch=0;" vertex="1" parent="70">
                    <mxGeometry x="19.58" y="27.15000000000009" width="100" height="70" as="geometry"/>
                </mxCell>
                <mxCell id="78" value="&amp;nbsp; &amp;nbsp; &amp;nbsp; &amp;nbsp; &amp;nbsp; Поле для отображения результатов" style="rounded=1;whiteSpace=wrap;html=1;align=left;verticalAlign=top;" parent="1" vertex="1">
                    <mxGeometry x="-785.85" y="3070" width="720" height="360" as="geometry"/>
                </mxCell>
                <mxCell id="92" value="" style="sketch=0;pointerEvents=1;shadow=0;dashed=0;html=1;strokeColor=none;fillColor=#505050;labelPosition=center;verticalLabelPosition=bottom;verticalAlign=top;outlineConnect=0;align=center;shape=mxgraph.office.users.administrator;fontSize=14;" parent="1" vertex="1">
                    <mxGeometry x="-196.5" y="460" width="56.5" height="50" as="geometry"/>
                </mxCell>
                <mxCell id="98" value="&lt;font style=&quot;font-size: 16px&quot;&gt;&lt;b&gt;Войти в аккаунт&lt;/b&gt;&lt;/font&gt;" style="text;html=1;strokeColor=none;fillColor=none;align=center;verticalAlign=middle;whiteSpace=wrap;rounded=0;fontSize=14;" parent="1" vertex="1">
                    <mxGeometry x="-705" y="350" width="110" height="30" as="geometry"/>
                </mxCell>
                <mxCell id="101" value="&lt;font style=&quot;font-size: 12px&quot;&gt;Обратиться к техподдержке&lt;/font&gt;" style="text;html=1;strokeColor=none;fillColor=none;align=center;verticalAlign=middle;whiteSpace=wrap;rounded=0;fontSize=14;" parent="1" vertex="1">
                    <mxGeometry x="-328.5" y="470" width="132" height="40" as="geometry"/>
                </mxCell>
                <mxCell id="117" value="" style="strokeWidth=1;shadow=0;dashed=0;align=center;html=1;shape=mxgraph.mockup.graphics.rrect;rSize=0;strokeColor=#999999;fontSize=12;" parent="1" vertex="1">
                    <mxGeometry x="-754" y="3100" width="664" height="310" as="geometry"/>
                </mxCell>
                <mxCell id="118" value="#" style="strokeColor=inherit;fillColor=inherit;gradientColor=inherit;strokeWidth=1;shadow=0;dashed=0;align=center;html=1;shape=mxgraph.mockup.graphics.rrect;rSize=0;fontColor=#666666;fontSize=12;" parent="117" vertex="1">
                    <mxGeometry width="22.133333333333333" height="41.333333333333336" as="geometry"/>
                </mxCell>
                <mxCell id="119" value="Task" style="strokeColor=inherit;fillColor=inherit;gradientColor=inherit;strokeWidth=1;shadow=0;dashed=0;align=center;html=1;shape=mxgraph.mockup.graphics.rrect;rSize=0;fontColor=#666666;fontSize=12;" parent="117" vertex="1">
                    <mxGeometry x="22.133333333333333" width="44.266666666666666" height="41.333333333333336" as="geometry"/>
                </mxCell>
                <mxCell id="120" value="Start" style="strokeColor=inherit;fillColor=inherit;gradientColor=inherit;strokeWidth=1;shadow=0;dashed=0;align=center;html=1;shape=mxgraph.mockup.graphics.rrect;rSize=0;fontColor=#666666;fontSize=12;" parent="117" vertex="1">
                    <mxGeometry x="66.4" width="143.86666666666667" height="41.333333333333336" as="geometry"/>
                </mxCell>
                <mxCell id="121" value="Effort" style="strokeColor=inherit;fillColor=inherit;gradientColor=inherit;strokeWidth=1;shadow=0;dashed=0;align=center;html=1;shape=mxgraph.mockup.graphics.rrect;rSize=0;fontColor=#666666;fontSize=12;" parent="117" vertex="1">
                    <mxGeometry x="210.2666666666667" width="55.33333333333334" height="41.333333333333336" as="geometry"/>
                </mxCell>
                <mxCell id="122" value="20//10//2014" style="strokeColor=inherit;fillColor=inherit;gradientColor=inherit;strokeWidth=1;shadow=0;dashed=0;align=center;html=1;shape=mxgraph.mockup.graphics.rrect;rSize=0;fontColor=#666666;fontSize=12;" parent="117" vertex="1">
                    <mxGeometry x="265.6" width="232.40000000000003" height="20.666666666666668" as="geometry"/>
                </mxCell>
                <mxCell id="123" value="27//10//2014" style="strokeColor=inherit;fillColor=inherit;gradientColor=inherit;strokeWidth=1;shadow=0;dashed=0;align=center;html=1;shape=mxgraph.mockup.graphics.rrect;rSize=0;fontColor=#666666;fontSize=12;" parent="117" vertex="1">
                    <mxGeometry x="498.00000000000006" width="166" height="20.666666666666668" as="geometry"/>
                </mxCell>
                <mxCell id="124" value="M" style="strokeColor=inherit;fillColor=inherit;gradientColor=inherit;strokeWidth=1;shadow=0;dashed=0;align=center;html=1;shape=mxgraph.mockup.graphics.rrect;rSize=0;;fontColor=#666666;fontSize=12;" parent="117" vertex="1">
                    <mxGeometry x="265.6" y="20.666666666666668" width="33.2" height="20.666666666666668" as="geometry"/>
                </mxCell>
                <mxCell id="125" value="T" style="strokeColor=inherit;fillColor=inherit;gradientColor=inherit;strokeWidth=1;shadow=0;dashed=0;align=center;html=1;shape=mxgraph.mockup.graphics.rrect;rSize=0;fontColor=#666666;fontSize=12;" parent="117" vertex="1">
                    <mxGeometry x="298.8" y="20.666666666666668" width="33.2" height="20.666666666666668" as="geometry"/>
                </mxCell>
                <mxCell id="126" value="W" style="strokeColor=inherit;fillColor=inherit;gradientColor=inherit;strokeWidth=1;shadow=0;dashed=0;align=center;html=1;shape=mxgraph.mockup.graphics.rrect;rSize=0;fontColor=#666666;fontSize=12;" parent="117" vertex="1">
                    <mxGeometry x="332" y="20.666666666666668" width="33.2" height="20.666666666666668" as="geometry"/>
                </mxCell>
                <mxCell id="127" value="T" style="strokeColor=inherit;fillColor=inherit;gradientColor=inherit;strokeWidth=1;shadow=0;dashed=0;align=center;html=1;shape=mxgraph.mockup.graphics.rrect;rSize=0;fontColor=#666666;fontSize=12;" parent="117" vertex="1">
                    <mxGeometry x="365.20000000000005" y="20.666666666666668" width="33.2" height="20.666666666666668" as="geometry"/>
                </mxCell>
                <mxCell id="128" value="F" style="strokeColor=inherit;fillColor=inherit;gradientColor=inherit;strokeWidth=1;shadow=0;dashed=0;align=center;html=1;shape=mxgraph.mockup.graphics.rrect;rSize=0;fontColor=#666666;fontSize=12;" parent="117" vertex="1">
                    <mxGeometry x="398.4000000000001" y="20.666666666666668" width="33.2" height="20.666666666666668" as="geometry"/>
                </mxCell>
                <mxCell id="129" value="S" style="strokeColor=inherit;fillColor=inherit;gradientColor=inherit;strokeWidth=1;shadow=0;dashed=0;align=center;html=1;shape=mxgraph.mockup.graphics.rrect;rSize=0;fontColor=#666666;fontSize=12;" parent="117" vertex="1">
                    <mxGeometry x="431.6000000000001" y="20.666666666666668" width="33.2" height="20.666666666666668" as="geometry"/>
                </mxCell>
                <mxCell id="130" value="S" style="strokeColor=inherit;fillColor=inherit;gradientColor=inherit;strokeWidth=1;shadow=0;dashed=0;align=center;html=1;shape=mxgraph.mockup.graphics.rrect;rSize=0;fontColor=#666666;fontSize=12;" parent="117" vertex="1">
                    <mxGeometry x="464.80000000000007" y="20.666666666666668" width="33.2" height="20.666666666666668" as="geometry"/>
                </mxCell>
                <mxCell id="131" value="M" style="strokeColor=inherit;fillColor=inherit;gradientColor=inherit;strokeWidth=1;shadow=0;dashed=0;align=center;html=1;shape=mxgraph.mockup.graphics.rrect;rSize=0;fontColor=#666666;fontSize=12;" parent="117" vertex="1">
                    <mxGeometry x="498.00000000000006" y="20.666666666666668" width="33.2" height="20.666666666666668" as="geometry"/>
                </mxCell>
                <mxCell id="132" value="T" style="strokeColor=inherit;fillColor=inherit;gradientColor=inherit;strokeWidth=1;shadow=0;dashed=0;align=center;html=1;shape=mxgraph.mockup.graphics.rrect;rSize=0;fontColor=#666666;fontSize=12;" parent="117" vertex="1">
                    <mxGeometry x="531.2" y="20.666666666666668" width="33.2" height="20.666666666666668" as="geometry"/>
                </mxCell>
                <mxCell id="133" value="W" style="strokeColor=inherit;fillColor=inherit;gradientColor=inherit;strokeWidth=1;shadow=0;dashed=0;align=center;html=1;shape=mxgraph.mockup.graphics.rrect;rSize=0;fontColor=#666666;fontSize=12;" parent="117" vertex="1">
                    <mxGeometry x="564.4" y="20.666666666666668" width="33.2" height="20.666666666666668" as="geometry"/>
                </mxCell>
                <mxCell id="134" value="T" style="strokeColor=inherit;fillColor=inherit;gradientColor=inherit;strokeWidth=1;shadow=0;dashed=0;align=center;html=1;shape=mxgraph.mockup.graphics.rrect;rSize=0;fontColor=#666666;fontSize=12;" parent="117" vertex="1">
                    <mxGeometry x="597.6" y="20.666666666666668" width="33.2" height="20.666666666666668" as="geometry"/>
                </mxCell>
                <mxCell id="135" value="F" style="strokeColor=inherit;fillColor=inherit;gradientColor=inherit;strokeWidth=1;shadow=0;dashed=0;align=center;html=1;shape=mxgraph.mockup.graphics.rrect;rSize=0;fontColor=#666666;fontSize=12;" parent="117" vertex="1">
                    <mxGeometry x="630.8000000000001" y="20.666666666666668" width="33.2" height="20.666666666666668" as="geometry"/>
                </mxCell>
                <mxCell id="136" value="" style="strokeColor=inherit;fillColor=inherit;gradientColor=inherit;strokeWidth=1;shadow=0;dashed=0;align=center;html=1;shape=mxgraph.mockup.graphics.rrect;rSize=0;fontColor=#666666;fontSize=12;" parent="117" vertex="1">
                    <mxGeometry y="41.333333333333336" width="265.6" height="268.6666666666667" as="geometry"/>
                </mxCell>
                <mxCell id="137" value="" style="strokeColor=inherit;fillColor=inherit;gradientColor=inherit;strokeWidth=1;shadow=0;dashed=0;align=center;html=1;shape=mxgraph.mockup.graphics.rrect;rSize=0;fontColor=#666666;fontSize=12;" parent="117" vertex="1">
                    <mxGeometry x="265.6" y="41.333333333333336" width="66.4" height="268.6666666666667" as="geometry"/>
                </mxCell>
                <mxCell id="138" value="" style="strokeColor=inherit;fillColor=inherit;gradientColor=inherit;strokeWidth=1;shadow=0;dashed=0;align=center;html=1;shape=mxgraph.mockup.graphics.rrect;rSize=0;fontColor=#666666;fontSize=12;" parent="117" vertex="1">
                    <mxGeometry x="332" y="41.333333333333336" width="66.4" height="268.6666666666667" as="geometry"/>
                </mxCell>
                <mxCell id="139" value="" style="strokeColor=inherit;fillColor=inherit;gradientColor=inherit;strokeWidth=1;shadow=0;dashed=0;align=center;html=1;shape=mxgraph.mockup.graphics.rrect;rSize=0;fontColor=#666666;fontSize=12;" parent="117" vertex="1">
                    <mxGeometry x="398.4000000000001" y="41.333333333333336" width="66.4" height="268.6666666666667" as="geometry"/>
                </mxCell>
                <mxCell id="140" value="" style="strokeColor=inherit;fillColor=inherit;gradientColor=inherit;strokeWidth=1;shadow=0;dashed=0;align=center;html=1;shape=mxgraph.mockup.graphics.rrect;rSize=0;fontColor=#666666;fontSize=12;" parent="117" vertex="1">
                    <mxGeometry x="464.80000000000007" y="41.333333333333336" width="66.4" height="268.6666666666667" as="geometry"/>
                </mxCell>
                <mxCell id="141" value="" style="strokeColor=inherit;fillColor=inherit;gradientColor=inherit;strokeWidth=1;shadow=0;dashed=0;align=center;html=1;shape=mxgraph.mockup.graphics.rrect;rSize=0;fontColor=#666666;fontSize=12;" parent="117" vertex="1">
                    <mxGeometry x="531.2" y="41.333333333333336" width="66.4" height="268.6666666666667" as="geometry"/>
                </mxCell>
                <mxCell id="142" value="" style="strokeColor=inherit;fillColor=inherit;gradientColor=inherit;strokeWidth=1;shadow=0;dashed=0;align=center;html=1;shape=mxgraph.mockup.graphics.rrect;rSize=0;fontColor=#666666;fontSize=12;" parent="117" vertex="1">
                    <mxGeometry x="597.6" y="41.333333333333336" width="66.4" height="268.6666666666667" as="geometry"/>
                </mxCell>
                <mxCell id="143" value="1" style="strokeWidth=1;shadow=0;dashed=0;align=center;html=1;shape=mxgraph.mockup.graphics.anchor;fontColor=#666666;fontSize=12;" parent="117" vertex="1">
                    <mxGeometry y="41.333333333333336" width="22.133333333333333" height="20.666666666666668" as="geometry"/>
                </mxCell>
                <mxCell id="144" value="Task 1" style="strokeWidth=1;shadow=0;dashed=0;align=center;html=1;shape=mxgraph.mockup.graphics.anchor;fontColor=#666666;fontSize=12;" parent="117" vertex="1">
                    <mxGeometry x="22.133333333333333" y="41.333333333333336" width="44.266666666666666" height="20.666666666666668" as="geometry"/>
                </mxCell>
                <mxCell id="145" value="20//10//2014 8:00 AM" style="strokeWidth=1;shadow=0;dashed=0;align=center;html=1;shape=mxgraph.mockup.graphics.anchor;fontColor=#666666;fontSize=12;" parent="117" vertex="1">
                    <mxGeometry x="66.4" y="41.333333333333336" width="143.86666666666667" height="20.666666666666668" as="geometry"/>
                </mxCell>
                <mxCell id="146" value="40h" style="strokeWidth=1;shadow=0;dashed=0;align=center;html=1;shape=mxgraph.mockup.graphics.anchor;fontColor=#666666;fontSize=12;" parent="117" vertex="1">
                    <mxGeometry x="210.2666666666667" y="41.333333333333336" width="55.33333333333334" height="20.666666666666668" as="geometry"/>
                </mxCell>
                <mxCell id="147" value="2" style="strokeWidth=1;shadow=0;dashed=0;align=center;html=1;shape=mxgraph.mockup.graphics.anchor;fontColor=#666666;fontSize=12;" parent="117" vertex="1">
                    <mxGeometry y="62" width="22.133333333333333" height="20.666666666666668" as="geometry"/>
                </mxCell>
                <mxCell id="148" value="Task 2" style="strokeWidth=1;shadow=0;dashed=0;align=center;html=1;shape=mxgraph.mockup.graphics.anchor;fontColor=#666666;fontSize=12;" parent="117" vertex="1">
                    <mxGeometry x="22.133333333333333" y="62" width="44.266666666666666" height="20.666666666666668" as="geometry"/>
                </mxCell>
                <mxCell id="149" value="20//10//2014 8:00 AM" style="strokeWidth=1;shadow=0;dashed=0;align=center;html=1;shape=mxgraph.mockup.graphics.anchor;fontColor=#666666;fontSize=12;" parent="117" vertex="1">
                    <mxGeometry x="66.4" y="62" width="143.86666666666667" height="20.666666666666668" as="geometry"/>
                </mxCell>
                <mxCell id="150" value="40h" style="strokeWidth=1;shadow=0;dashed=0;align=center;html=1;shape=mxgraph.mockup.graphics.anchor;fontColor=#666666;fontSize=12;" parent="117" vertex="1">
                    <mxGeometry x="210.2666666666667" y="62" width="55.33333333333334" height="20.666666666666668" as="geometry"/>
                </mxCell>
                <mxCell id="151" value="3" style="strokeWidth=1;shadow=0;dashed=0;align=center;html=1;shape=mxgraph.mockup.graphics.anchor;fontColor=#666666;fontSize=12;" parent="117" vertex="1">
                    <mxGeometry y="82.66666666666667" width="22.133333333333333" height="20.666666666666668" as="geometry"/>
                </mxCell>
                <mxCell id="152" value="Task 3" style="strokeWidth=1;shadow=0;dashed=0;align=center;html=1;shape=mxgraph.mockup.graphics.anchor;fontColor=#666666;fontSize=12;" parent="117" vertex="1">
                    <mxGeometry x="22.133333333333333" y="82.66666666666667" width="44.266666666666666" height="20.666666666666668" as="geometry"/>
                </mxCell>
                <mxCell id="153" value="20//10//2014 8:00 AM" style="strokeWidth=1;shadow=0;dashed=0;align=center;html=1;shape=mxgraph.mockup.graphics.anchor;fontColor=#666666;fontSize=12;" parent="117" vertex="1">
                    <mxGeometry x="66.4" y="82.66666666666667" width="143.86666666666667" height="20.666666666666668" as="geometry"/>
                </mxCell>
                <mxCell id="154" value="40h" style="strokeWidth=1;shadow=0;dashed=0;align=center;html=1;shape=mxgraph.mockup.graphics.anchor;fontColor=#666666;fontSize=12;" parent="117" vertex="1">
                    <mxGeometry x="210.2666666666667" y="82.66666666666667" width="55.33333333333334" height="20.666666666666668" as="geometry"/>
                </mxCell>
                <mxCell id="155" value="4" style="strokeWidth=1;shadow=0;dashed=0;align=center;html=1;shape=mxgraph.mockup.graphics.anchor;fontColor=#666666;fontSize=12;" parent="117" vertex="1">
                    <mxGeometry y="103.33333333333333" width="22.133333333333333" height="20.666666666666668" as="geometry"/>
                </mxCell>
                <mxCell id="156" value="Task 4" style="strokeWidth=1;shadow=0;dashed=0;align=center;html=1;shape=mxgraph.mockup.graphics.anchor;fontColor=#666666;fontSize=12;" parent="117" vertex="1">
                    <mxGeometry x="22.133333333333333" y="103.33333333333333" width="44.266666666666666" height="20.666666666666668" as="geometry"/>
                </mxCell>
                <mxCell id="157" value="20//10//2014 8:00 AM" style="strokeWidth=1;shadow=0;dashed=0;align=center;html=1;shape=mxgraph.mockup.graphics.anchor;fontColor=#666666;fontSize=12;" parent="117" vertex="1">
                    <mxGeometry x="66.4" y="103.33333333333333" width="143.86666666666667" height="20.666666666666668" as="geometry"/>
                </mxCell>
                <mxCell id="158" value="40h" style="strokeWidth=1;shadow=0;dashed=0;align=center;html=1;shape=mxgraph.mockup.graphics.anchor;fontColor=#666666;fontSize=12;" parent="117" vertex="1">
                    <mxGeometry x="210.2666666666667" y="103.33333333333333" width="55.33333333333334" height="20.666666666666668" as="geometry"/>
                </mxCell>
                <mxCell id="159" value="" style="strokeWidth=1;shadow=0;dashed=0;align=center;html=1;shape=mxgraph.mockup.graphics.rrect;rSize=0;strokeColor=none;fillColor=#aaddff;fontSize=12;" parent="117" vertex="1">
                    <mxGeometry x="276.6666666666667" y="46.5" width="143.86666666666667" height="10.333333333333334" as="geometry"/>
                </mxCell>
                <mxCell id="160" value="" style="strokeWidth=1;shadow=0;dashed=0;align=center;html=1;shape=mxgraph.mockup.graphics.rrect;rSize=0;strokeColor=none;fillColor=#aaddff;fontSize=12;" parent="117" vertex="1">
                    <mxGeometry x="276.6666666666667" y="67.16666666666667" width="44.266666666666666" height="10.333333333333334" as="geometry"/>
                </mxCell>
                <mxCell id="161" value="" style="strokeWidth=1;shadow=0;dashed=0;align=center;html=1;shape=mxgraph.mockup.graphics.rrect;rSize=0;strokeColor=none;fillColor=#aaddff;fontSize=12;" parent="117" vertex="1">
                    <mxGeometry x="309.8666666666667" y="87.83333333333336" width="110.66666666666669" height="10.333333333333334" as="geometry"/>
                </mxCell>
                <mxCell id="162" value="" style="strokeWidth=1;shadow=0;dashed=0;align=center;html=1;shape=mxgraph.mockup.graphics.rrect;rSize=0;strokeColor=none;fillColor=#aaddff;fontSize=12;" parent="117" vertex="1">
                    <mxGeometry x="376.26666666666677" y="108.5" width="77.46666666666667" height="10.333333333333334" as="geometry"/>
                </mxCell>
                <mxCell id="163" value="" style="verticalLabelPosition=bottom;shadow=0;dashed=0;align=center;html=1;verticalAlign=top;strokeWidth=1;shape=mxgraph.mockup.graphics.lineChart;strokeColor=none;strokeColor2=#666666;strokeColor3=#008cff;strokeColor4=#dddddd;fontSize=12;" parent="117" vertex="1">
                    <mxGeometry x="22.129999999999995" y="170" width="180" height="100" as="geometry"/>
                </mxCell>
                <mxCell id="164" value="" style="verticalLabelPosition=bottom;shadow=0;dashed=0;align=center;html=1;verticalAlign=top;strokeWidth=1;shape=mxgraph.mockup.graphics.columnChart;strokeColor=none;strokeColor2=none;strokeColor3=#666666;fillColor2=#008cff;fillColor3=#dddddd;fontSize=12;" parent="117" vertex="1">
                    <mxGeometry x="265.6" y="180" width="183.35" height="105" as="geometry"/>
                </mxCell>
                <mxCell id="165" value="" style="verticalLabelPosition=bottom;shadow=0;dashed=0;align=center;html=1;verticalAlign=top;strokeWidth=1;shape=mxgraph.mockup.graphics.barChart;strokeColor=none;strokeColor2=none;strokeColor3=#666666;fillColor2=#008cff;fillColor3=#dddddd;fontSize=12;" parent="117" vertex="1">
                    <mxGeometry x="498" y="39" width="148" height="85" as="geometry"/>
                </mxCell>
                <mxCell id="207" value="" style="sketch=0;pointerEvents=1;shadow=0;dashed=0;html=1;strokeColor=none;fillColor=#505050;labelPosition=center;verticalLabelPosition=bottom;verticalAlign=top;outlineConnect=0;align=center;shape=mxgraph.office.users.administrator;fontSize=14;" vertex="1" parent="117">
                    <mxGeometry x="602.15" y="249.9999999999996" width="56.5" height="50" as="geometry"/>
                </mxCell>
                <mxCell id="208" value="&lt;font style=&quot;font-size: 12px&quot;&gt;Обратиться к техподдержке&lt;/font&gt;" style="text;html=1;strokeColor=none;fillColor=none;align=center;verticalAlign=middle;whiteSpace=wrap;rounded=0;fontSize=14;" vertex="1" parent="117">
                    <mxGeometry x="470.15" y="259.9999999999996" width="132" height="40" as="geometry"/>
                </mxCell>
                <mxCell id="179" value="" style="aspect=fixed;html=1;points=[];align=center;image;fontSize=12;image=img/lib/azure2/identity/Users.svg;" vertex="1" parent="1">
                    <mxGeometry x="-695.71" y="235" width="91.43" height="100" as="geometry"/>
                </mxCell>
                <mxCell id="43" value="Выбор программы уборки" style="rounded=1;whiteSpace=wrap;html=1;" parent="1" vertex="1">
                    <mxGeometry x="-730.8290487062404" y="1379.9980087878787" width="117.83333333333333" height="53.63909090909092" as="geometry"/>
                </mxCell>
                <mxCell id="44" value="&lt;font style=&quot;font-size: 14px&quot;&gt;Настройка расписания&lt;/font&gt;" style="rounded=1;whiteSpace=wrap;html=1;" parent="1" vertex="1">
                    <mxGeometry x="-590.8293546423135" y="1379.9980087878787" width="117.83333333333331" height="53.63909090909092" as="geometry"/>
                </mxCell>
                <mxCell id="46" value="Просмотр статистики" style="rounded=1;whiteSpace=wrap;html=1;" parent="1" vertex="1">
                    <mxGeometry x="-446.33007914764084" y="1379.998008787879" width="117.83333333333331" height="53.63909090909092" as="geometry"/>
                </mxCell>
                <mxCell id="45" value="Добавить помещение" style="rounded=1;whiteSpace=wrap;html=1;" parent="1" vertex="1">
                    <mxGeometry x="-299.9967701674277" y="1379.9980087878787" width="117.83333333333331" height="53.63909090909092" as="geometry"/>
                </mxCell>
                <mxCell id="191" value="" style="sketch=0;pointerEvents=1;shadow=0;dashed=0;html=1;strokeColor=none;fillColor=#505050;labelPosition=center;verticalLabelPosition=bottom;verticalAlign=top;outlineConnect=0;align=center;shape=mxgraph.office.users.administrator;fontSize=14;" vertex="1" parent="1">
                    <mxGeometry x="-168" y="1620" width="56.5" height="50" as="geometry"/>
                </mxCell>
                <mxCell id="192" value="&lt;font style=&quot;font-size: 12px&quot;&gt;Обратиться к техподдержке&lt;/font&gt;" style="text;html=1;strokeColor=none;fillColor=none;align=center;verticalAlign=middle;whiteSpace=wrap;rounded=0;fontSize=14;" vertex="1" parent="1">
                    <mxGeometry x="-300" y="1630" width="132" height="40" as="geometry"/>
                </mxCell>
                <mxCell id="53" value="Выбрать помещение" style="rounded=1;whiteSpace=wrap;html=1;" parent="1" vertex="1">
                    <mxGeometry x="-756.9990487062405" y="1949.9980087878787" width="117.83333333333333" height="53.63909090909092" as="geometry"/>
                </mxCell>
                <mxCell id="54" value="Добавить помещение" style="rounded=1;whiteSpace=wrap;html=1;" parent="1" vertex="1">
                    <mxGeometry x="-618.8493546423135" y="1949.9980087878787" width="117.83333333333331" height="53.63909090909092" as="geometry"/>
                </mxCell>
                <mxCell id="56" value="Выбрать программу уборки" style="rounded=1;whiteSpace=wrap;html=1;" parent="1" vertex="1">
                    <mxGeometry x="-469.42" y="1950" width="117.83333333333331" height="53.63909090909092" as="geometry"/>
                </mxCell>
                <mxCell id="57" value="Выбрать дату и время" style="rounded=1;whiteSpace=wrap;html=1;" parent="1" vertex="1">
                    <mxGeometry x="-328.49557838660576" y="1950" width="117.83333333333331" height="53.63909090909092" as="geometry"/>
                </mxCell>
                <mxCell id="193" value="&lt;font style=&quot;font-size: 12px&quot;&gt;Обратиться к техподдержке&lt;/font&gt;" style="text;html=1;strokeColor=none;fillColor=none;align=center;verticalAlign=middle;whiteSpace=wrap;rounded=0;fontSize=14;" vertex="1" parent="1">
                    <mxGeometry x="-290" y="2190" width="132" height="40" as="geometry"/>
                </mxCell>
                <mxCell id="194" value="" style="sketch=0;pointerEvents=1;shadow=0;dashed=0;html=1;strokeColor=none;fillColor=#505050;labelPosition=center;verticalLabelPosition=bottom;verticalAlign=top;outlineConnect=0;align=center;shape=mxgraph.office.users.administrator;fontSize=14;" vertex="1" parent="1">
                    <mxGeometry x="-158" y="2180" width="56.5" height="50" as="geometry"/>
                </mxCell>
                <mxCell id="199" value="Запуск уборки" style="rounded=1;whiteSpace=wrap;html=1;" vertex="1" parent="1">
                    <mxGeometry x="-759.9955783866058" y="2570" width="117.83333333333331" height="53.63909090909092" as="geometry"/>
                </mxCell>
                <mxCell id="200" value="Выбрать программу уборки" style="rounded=1;whiteSpace=wrap;html=1;" vertex="1" parent="1">
                    <mxGeometry x="-466.41999999999996" y="2570" width="117.83333333333331" height="53.63909090909092" as="geometry"/>
                </mxCell>
                <mxCell id="201" value="Добавить программу" style="rounded=1;whiteSpace=wrap;html=1;" vertex="1" parent="1">
                    <mxGeometry x="-615.8493546423135" y="2569.9980087878785" width="117.83333333333331" height="53.63909090909092" as="geometry"/>
                </mxCell>
                <mxCell id="203" value="&lt;font style=&quot;font-size: 12px&quot;&gt;Обратиться к техподдержке&lt;/font&gt;" style="text;html=1;strokeColor=none;fillColor=none;align=center;verticalAlign=middle;whiteSpace=wrap;rounded=0;fontSize=14;" vertex="1" parent="1">
                    <mxGeometry x="-318.25" y="2809.9999999999995" width="132" height="40" as="geometry"/>
                </mxCell>
                <mxCell id="204" value="" style="sketch=0;pointerEvents=1;shadow=0;dashed=0;html=1;strokeColor=none;fillColor=#505050;labelPosition=center;verticalLabelPosition=bottom;verticalAlign=top;outlineConnect=0;align=center;shape=mxgraph.office.users.administrator;fontSize=14;" vertex="1" parent="1">
                    <mxGeometry x="-186.25" y="2799.9999999999995" width="56.5" height="50" as="geometry"/>
                </mxCell>
                <mxCell id="209" value="настройки программы" style="rounded=1;whiteSpace=wrap;html=1;" vertex="1" parent="1">
                    <mxGeometry x="-321.41999999999996" y="2570" width="117.83333333333331" height="53.63909090909092" as="geometry"/>
                </mxCell>
            </root>
        </mxGraphModel>
    </diagram>
</mxfile>